# xmcd
#
# Track frame offsets:
#	150
#	12703
#	23115
#	34210
#	46238
#	57388
#	69598
#	83801
#	95412
#	106033
#
# Disc length: 1556 seconds
#
# Revision: 1
# Processed by: cddbd v1.5.2PL0 Copyright (c) Steve Scherf et al.
# Submitted via: audiograbber 1.83.01
#
DISCID=7c06120a
DTITLE=Wanda Jackson - A Woman Lives For Love
DYEAR=1970
DGENRE=Country
TTITLE0=A Woman Lives For Love
TTITLE1=02. It's Such A Pretty World Today
TTITLE2=03. Stop The World
TTITLE3=04. The Dirt Behind My Years
TTITLE4=05. Walk Though This World With Me
TTITLE5=Stand By Your Man
TTITLE6=07. You're The Only World I Know
TTITLE7=08. One Minute Past Eternity
TTITLE8=09. Let Trouble Be You
TTITLE9=10. I'd Fight The World
EXTD=
EXTT0=
EXTT1=
EXTT2=
EXTT3=
EXTT4=
EXTT5=
EXTT6=
EXTT7=
EXTT8=
EXTT9=
PLAYORDER=
